<svg version="1.1" xmlns="http://www.w3.org/2000/svg" xmlns:xlink="http://www.w3.org/1999/xlink" x="0px" y="0px" viewBox="0 0 128 128" style="enable-background:new 0 0 128 128;" xml:space="preserve">
    <g>
        <path d="M82.348,77.986l19.25,19.25l-5.264,5.264l-19.25-21.055c-5.715,4.714-12.133,7.068-19.25,7.068
			c-8.624,0-16.017-3.083-22.183-9.249s-9.249-13.61-9.249-22.333s3.083-16.141,9.249-22.258C41.817,28.56,49.21,25.5,57.834,25.5
			c8.723,0,16.167,3.06,22.333,9.174c6.166,6.117,9.249,13.535,9.249,22.258C89.416,65.153,87.059,72.173,82.348,77.986z
			 M40.539,74.302c4.812,4.764,10.577,7.144,17.295,7.144c6.716,0,12.482-2.38,17.295-7.144c4.812-4.761,7.219-10.551,7.219-17.37
			c0-6.716-2.406-12.457-7.219-17.22c-4.812-4.761-10.579-7.144-17.295-7.144c-6.718,0-12.482,2.383-17.295,7.144
			c-4.812,4.763-7.219,10.504-7.219,17.22C33.32,63.751,35.727,69.541,40.539,74.302z"></path>
    </g>
</svg>