<svg version="1.1" xmlns="http://www.w3.org/2000/svg" xmlns:xlink="http://www.w3.org/1999/xlink" x="0px" y="0px" viewBox="0 0 128 128" style="enable-background:new 0 0 128 128;" xml:space="preserve">
    <path d="M93.064,44.523l3.5,58.432H31.437l3.804-58.432h6.239l-0.304,6.543l0,0l-2.587,45.346h51.584l-2.891-45.346
			h-6.848v6.391h-6.543V41.328c0-2.839-0.939-5.174-2.815-7c-1.878-1.826-4.185-2.739-6.924-2.739s-5.048,0.913-6.924,2.739
			c-1.878,1.826-2.815,4.161-2.815,7v3.195h12.934v6.543H54.414v6.391h-6.543V41.328c0-4.565,1.571-8.419,4.717-11.565
			c3.144-3.143,7-4.717,11.565-4.717c4.565,0,8.419,1.574,11.564,4.717c3.144,3.146,4.718,7,4.718,11.565v3.195H93.064z"></path>
</svg>